<?xml version="1.0" encoding="UTF-8"?>
<svg xmlns="http://www.w3.org/2000/svg" xmlns:xlink="http://www.w3.org/1999/xlink" width="522pt" height="166pt" viewBox="0 0 522 166" version="1.1">
<defs>
<g>
<symbol overflow="visible" id="MGcQ5DkM0-0">
<path style="stroke:none;" d="M 0.59375 2.125 L 0.59375 -8.46875 L 6.59375 -8.46875 L 6.59375 2.125 Z M 1.265625 1.453125 L 5.9375 1.453125 L 5.9375 -7.78125 L 1.265625 -7.78125 Z M 1.265625 1.453125 "/>
</symbol>
<symbol overflow="visible" id="MGcQ5DkM0-1">
<path style="stroke:none;" d="M 3.8125 -7.96875 C 3.207031 -7.96875 2.75 -7.664062 2.4375 -7.0625 C 2.132812 -6.46875 1.984375 -5.566406 1.984375 -4.359375 C 1.984375 -3.160156 2.132812 -2.257812 2.4375 -1.65625 C 2.75 -1.0625 3.207031 -0.765625 3.8125 -0.765625 C 4.425781 -0.765625 4.882812 -1.0625 5.1875 -1.65625 C 5.5 -2.257812 5.65625 -3.160156 5.65625 -4.359375 C 5.65625 -5.566406 5.5 -6.46875 5.1875 -7.0625 C 4.882812 -7.664062 4.425781 -7.96875 3.8125 -7.96875 Z M 3.8125 -8.90625 C 4.789062 -8.90625 5.539062 -8.515625 6.0625 -7.734375 C 6.582031 -6.960938 6.84375 -5.835938 6.84375 -4.359375 C 6.84375 -2.890625 6.582031 -1.765625 6.0625 -0.984375 C 5.539062 -0.210938 4.789062 0.171875 3.8125 0.171875 C 2.832031 0.171875 2.082031 -0.210938 1.5625 -0.984375 C 1.050781 -1.765625 0.796875 -2.890625 0.796875 -4.359375 C 0.796875 -5.835938 1.050781 -6.960938 1.5625 -7.734375 C 2.082031 -8.515625 2.832031 -8.90625 3.8125 -8.90625 Z M 3.8125 -8.90625 "/>
</symbol>
<symbol overflow="visible" id="MGcQ5DkM0-2">
<path style="stroke:none;" d="M 1.28125 -1.484375 L 2.515625 -1.484375 L 2.515625 0 L 1.28125 0 Z M 1.28125 -1.484375 "/>
</symbol>
<symbol overflow="visible" id="MGcQ5DkM1-0">
<path style="stroke:none;" d="M 0.59375 2.125 L 0.59375 -8.46875 L 6.59375 -8.46875 L 6.59375 2.125 Z M 1.265625 1.453125 L 5.9375 1.453125 L 5.9375 -7.78125 L 1.265625 -7.78125 Z M 1.265625 1.453125 "/>
</symbol>
<symbol overflow="visible" id="MGcQ5DkM1-1">
<path style="stroke:none;" d="M 1.484375 -1 L 3.421875 -1 L 3.421875 -7.671875 L 1.3125 -7.25 L 1.3125 -8.328125 L 3.40625 -8.75 L 4.59375 -8.75 L 4.59375 -1 L 6.53125 -1 L 6.53125 0 L 1.484375 0 Z M 1.484375 -1 "/>
</symbol>
<symbol overflow="visible" id="MGcQ5DkM1-2">
<path style="stroke:none;" d="M 3.8125 -7.96875 C 3.207031 -7.96875 2.75 -7.664062 2.4375 -7.0625 C 2.132812 -6.46875 1.984375 -5.566406 1.984375 -4.359375 C 1.984375 -3.160156 2.132812 -2.257812 2.4375 -1.65625 C 2.75 -1.0625 3.207031 -0.765625 3.8125 -0.765625 C 4.425781 -0.765625 4.882812 -1.0625 5.1875 -1.65625 C 5.5 -2.257812 5.65625 -3.160156 5.65625 -4.359375 C 5.65625 -5.566406 5.5 -6.46875 5.1875 -7.0625 C 4.882812 -7.664062 4.425781 -7.96875 3.8125 -7.96875 Z M 3.8125 -8.90625 C 4.789062 -8.90625 5.539062 -8.515625 6.0625 -7.734375 C 6.582031 -6.960938 6.84375 -5.835938 6.84375 -4.359375 C 6.84375 -2.890625 6.582031 -1.765625 6.0625 -0.984375 C 5.539062 -0.210938 4.789062 0.171875 3.8125 0.171875 C 2.832031 0.171875 2.082031 -0.210938 1.5625 -0.984375 C 1.050781 -1.765625 0.796875 -2.890625 0.796875 -4.359375 C 0.796875 -5.835938 1.050781 -6.960938 1.5625 -7.734375 C 2.082031 -8.515625 2.832031 -8.90625 3.8125 -8.90625 Z M 3.8125 -8.90625 "/>
</symbol>
<symbol overflow="visible" id="MGcQ5DkM1-3">
<path style="stroke:none;" d="M 2.296875 -1 L 6.4375 -1 L 6.4375 0 L 0.875 0 L 0.875 -1 C 1.320312 -1.457031 1.929688 -2.078125 2.703125 -2.859375 C 3.484375 -3.648438 3.972656 -4.160156 4.171875 -4.390625 C 4.554688 -4.804688 4.820312 -5.160156 4.96875 -5.453125 C 5.125 -5.753906 5.203125 -6.046875 5.203125 -6.328125 C 5.203125 -6.796875 5.035156 -7.175781 4.703125 -7.46875 C 4.378906 -7.757812 3.957031 -7.90625 3.4375 -7.90625 C 3.0625 -7.90625 2.664062 -7.84375 2.25 -7.71875 C 1.84375 -7.59375 1.40625 -7.394531 0.9375 -7.125 L 0.9375 -8.328125 C 1.414062 -8.515625 1.859375 -8.65625 2.265625 -8.75 C 2.679688 -8.851562 3.0625 -8.90625 3.40625 -8.90625 C 4.3125 -8.90625 5.035156 -8.675781 5.578125 -8.21875 C 6.117188 -7.769531 6.390625 -7.164062 6.390625 -6.40625 C 6.390625 -6.050781 6.320312 -5.710938 6.1875 -5.390625 C 6.050781 -5.066406 5.804688 -4.6875 5.453125 -4.25 C 5.347656 -4.132812 5.035156 -3.804688 4.515625 -3.265625 C 3.992188 -2.722656 3.253906 -1.96875 2.296875 -1 Z M 2.296875 -1 "/>
</symbol>
<symbol overflow="visible" id="MGcQ5DkM1-4">
<path style="stroke:none;" d="M 4.875 -4.71875 C 5.4375 -4.59375 5.875 -4.335938 6.1875 -3.953125 C 6.507812 -3.578125 6.671875 -3.109375 6.671875 -2.546875 C 6.671875 -1.679688 6.375 -1.007812 5.78125 -0.53125 C 5.1875 -0.0625 4.34375 0.171875 3.25 0.171875 C 2.882812 0.171875 2.503906 0.132812 2.109375 0.0625 C 1.722656 -0.0078125 1.328125 -0.117188 0.921875 -0.265625 L 0.921875 -1.40625 C 1.242188 -1.21875 1.597656 -1.070312 1.984375 -0.96875 C 2.378906 -0.875 2.789062 -0.828125 3.21875 -0.828125 C 3.957031 -0.828125 4.519531 -0.972656 4.90625 -1.265625 C 5.300781 -1.554688 5.5 -1.984375 5.5 -2.546875 C 5.5 -3.054688 5.316406 -3.457031 4.953125 -3.75 C 4.585938 -4.039062 4.085938 -4.1875 3.453125 -4.1875 L 2.421875 -4.1875 L 2.421875 -5.15625 L 3.5 -5.15625 C 4.070312 -5.15625 4.515625 -5.269531 4.828125 -5.5 C 5.140625 -5.738281 5.296875 -6.078125 5.296875 -6.515625 C 5.296875 -6.960938 5.132812 -7.304688 4.8125 -7.546875 C 4.5 -7.785156 4.046875 -7.90625 3.453125 -7.90625 C 3.117188 -7.90625 2.765625 -7.867188 2.390625 -7.796875 C 2.023438 -7.734375 1.617188 -7.628906 1.171875 -7.484375 L 1.171875 -8.53125 C 1.628906 -8.65625 2.050781 -8.75 2.4375 -8.8125 C 2.832031 -8.875 3.203125 -8.90625 3.546875 -8.90625 C 4.453125 -8.90625 5.164062 -8.703125 5.6875 -8.296875 C 6.207031 -7.890625 6.46875 -7.335938 6.46875 -6.640625 C 6.46875 -6.148438 6.328125 -5.738281 6.046875 -5.40625 C 5.773438 -5.070312 5.382812 -4.84375 4.875 -4.71875 Z M 4.875 -4.71875 "/>
</symbol>
<symbol overflow="visible" id="MGcQ5DkM1-5">
<path style="stroke:none;" d="M 6.59375 -6.5625 L 4.21875 -3.375 L 6.703125 0 L 5.4375 0 L 3.53125 -2.578125 L 1.625 0 L 0.34375 0 L 2.890625 -3.4375 L 0.5625 -6.5625 L 1.828125 -6.5625 L 3.578125 -4.21875 L 5.3125 -6.5625 Z M 6.59375 -6.5625 "/>
</symbol>
<symbol overflow="visible" id="MGcQ5DkM2-0">
<path style="stroke:none;" d="M 0.59375 2.125 L 0.59375 -8.46875 L 6.59375 -8.46875 L 6.59375 2.125 Z M 1.265625 1.453125 L 5.9375 1.453125 L 5.9375 -7.78125 L 1.265625 -7.78125 Z M 1.265625 1.453125 "/>
</symbol>
<symbol overflow="visible" id="MGcQ5DkM2-1">
<path style="stroke:none;" d="M 3.8125 -7.96875 C 3.207031 -7.96875 2.75 -7.664062 2.4375 -7.0625 C 2.132812 -6.46875 1.984375 -5.566406 1.984375 -4.359375 C 1.984375 -3.160156 2.132812 -2.257812 2.4375 -1.65625 C 2.75 -1.0625 3.207031 -0.765625 3.8125 -0.765625 C 4.425781 -0.765625 4.882812 -1.0625 5.1875 -1.65625 C 5.5 -2.257812 5.65625 -3.160156 5.65625 -4.359375 C 5.65625 -5.566406 5.5 -6.46875 5.1875 -7.0625 C 4.882812 -7.664062 4.425781 -7.96875 3.8125 -7.96875 Z M 3.8125 -8.90625 C 4.789062 -8.90625 5.539062 -8.515625 6.0625 -7.734375 C 6.582031 -6.960938 6.84375 -5.835938 6.84375 -4.359375 C 6.84375 -2.890625 6.582031 -1.765625 6.0625 -0.984375 C 5.539062 -0.210938 4.789062 0.171875 3.8125 0.171875 C 2.832031 0.171875 2.082031 -0.210938 1.5625 -0.984375 C 1.050781 -1.765625 0.796875 -2.890625 0.796875 -4.359375 C 0.796875 -5.835938 1.050781 -6.960938 1.5625 -7.734375 C 2.082031 -8.515625 2.832031 -8.90625 3.8125 -8.90625 Z M 3.8125 -8.90625 "/>
</symbol>
<symbol overflow="visible" id="MGcQ5DkM3-0">
<path style="stroke:none;" d="M 0.59375 2.125 L 0.59375 -8.46875 L 6.59375 -8.46875 L 6.59375 2.125 Z M 1.265625 1.453125 L 5.9375 1.453125 L 5.9375 -7.78125 L 1.265625 -7.78125 Z M 1.265625 1.453125 "/>
</symbol>
<symbol overflow="visible" id="MGcQ5DkM3-1">
<path style="stroke:none;" d="M 0.59375 -3.765625 L 3.75 -3.765625 L 3.75 -2.8125 L 0.59375 -2.8125 Z M 0.59375 -3.765625 "/>
</symbol>
<symbol overflow="visible" id="MGcQ5DkM4-0">
<path style="stroke:none;" d="M 0.59375 2.125 L 0.59375 -8.46875 L 6.59375 -8.46875 L 6.59375 2.125 Z M 1.265625 1.453125 L 5.9375 1.453125 L 5.9375 -7.78125 L 1.265625 -7.78125 Z M 1.265625 1.453125 "/>
</symbol>
<symbol overflow="visible" id="MGcQ5DkM4-1">
<path style="stroke:none;" d="M 1.484375 -1 L 3.421875 -1 L 3.421875 -7.671875 L 1.3125 -7.25 L 1.3125 -8.328125 L 3.40625 -8.75 L 4.59375 -8.75 L 4.59375 -1 L 6.53125 -1 L 6.53125 0 L 1.484375 0 Z M 1.484375 -1 "/>
</symbol>
<symbol overflow="visible" id="MGcQ5DkM4-2">
<path style="stroke:none;" d="M 3.8125 -7.96875 C 3.207031 -7.96875 2.75 -7.664062 2.4375 -7.0625 C 2.132812 -6.46875 1.984375 -5.566406 1.984375 -4.359375 C 1.984375 -3.160156 2.132812 -2.257812 2.4375 -1.65625 C 2.75 -1.0625 3.207031 -0.765625 3.8125 -0.765625 C 4.425781 -0.765625 4.882812 -1.0625 5.1875 -1.65625 C 5.5 -2.257812 5.65625 -3.160156 5.65625 -4.359375 C 5.65625 -5.566406 5.5 -6.46875 5.1875 -7.0625 C 4.882812 -7.664062 4.425781 -7.96875 3.8125 -7.96875 Z M 3.8125 -8.90625 C 4.789062 -8.90625 5.539062 -8.515625 6.0625 -7.734375 C 6.582031 -6.960938 6.84375 -5.835938 6.84375 -4.359375 C 6.84375 -2.890625 6.582031 -1.765625 6.0625 -0.984375 C 5.539062 -0.210938 4.789062 0.171875 3.8125 0.171875 C 2.832031 0.171875 2.082031 -0.210938 1.5625 -0.984375 C 1.050781 -1.765625 0.796875 -2.890625 0.796875 -4.359375 C 0.796875 -5.835938 1.050781 -6.960938 1.5625 -7.734375 C 2.082031 -8.515625 2.832031 -8.90625 3.8125 -8.90625 Z M 3.8125 -8.90625 "/>
</symbol>
<symbol overflow="visible" id="MGcQ5DkM5-0">
<path style="stroke:none;" d="M 0.59375 2.125 L 0.59375 -8.46875 L 6.59375 -8.46875 L 6.59375 2.125 Z M 1.265625 1.453125 L 5.9375 1.453125 L 5.9375 -7.78125 L 1.265625 -7.78125 Z M 1.265625 1.453125 "/>
</symbol>
<symbol overflow="visible" id="MGcQ5DkM5-1">
<path style="stroke:none;" d="M 0.59375 -3.765625 L 3.75 -3.765625 L 3.75 -2.8125 L 0.59375 -2.8125 Z M 0.59375 -3.765625 "/>
</symbol>
<symbol overflow="visible" id="MGcQ5DkM5-2">
<path style="stroke:none;" d="M 3.8125 -7.96875 C 3.207031 -7.96875 2.75 -7.664062 2.4375 -7.0625 C 2.132812 -6.46875 1.984375 -5.566406 1.984375 -4.359375 C 1.984375 -3.160156 2.132812 -2.257812 2.4375 -1.65625 C 2.75 -1.0625 3.207031 -0.765625 3.8125 -0.765625 C 4.425781 -0.765625 4.882812 -1.0625 5.1875 -1.65625 C 5.5 -2.257812 5.65625 -3.160156 5.65625 -4.359375 C 5.65625 -5.566406 5.5 -6.46875 5.1875 -7.0625 C 4.882812 -7.664062 4.425781 -7.96875 3.8125 -7.96875 Z M 3.8125 -8.90625 C 4.789062 -8.90625 5.539062 -8.515625 6.0625 -7.734375 C 6.582031 -6.960938 6.84375 -5.835938 6.84375 -4.359375 C 6.84375 -2.890625 6.582031 -1.765625 6.0625 -0.984375 C 5.539062 -0.210938 4.789062 0.171875 3.8125 0.171875 C 2.832031 0.171875 2.082031 -0.210938 1.5625 -0.984375 C 1.050781 -1.765625 0.796875 -2.890625 0.796875 -4.359375 C 0.796875 -5.835938 1.050781 -6.960938 1.5625 -7.734375 C 2.082031 -8.515625 2.832031 -8.90625 3.8125 -8.90625 Z M 3.8125 -8.90625 "/>
</symbol>
<symbol overflow="visible" id="MGcQ5DkM5-3">
<path style="stroke:none;" d="M 1.28125 -1.484375 L 2.515625 -1.484375 L 2.515625 0 L 1.28125 0 Z M 1.28125 -1.484375 "/>
</symbol>
<symbol overflow="visible" id="MGcQ5DkM6-0">
<path style="stroke:none;" d="M 0.59375 2.125 L 0.59375 -8.46875 L 6.59375 -8.46875 L 6.59375 2.125 Z M 1.265625 1.453125 L 5.9375 1.453125 L 5.9375 -7.78125 L 1.265625 -7.78125 Z M 1.265625 1.453125 "/>
</symbol>
<symbol overflow="visible" id="MGcQ5DkM6-1">
<path style="stroke:none;" d="M 1.296875 -8.75 L 5.9375 -8.75 L 5.9375 -7.75 L 2.375 -7.75 L 2.375 -5.609375 C 2.550781 -5.671875 2.722656 -5.710938 2.890625 -5.734375 C 3.066406 -5.765625 3.238281 -5.78125 3.40625 -5.78125 C 4.382812 -5.78125 5.160156 -5.507812 5.734375 -4.96875 C 6.304688 -4.4375 6.59375 -3.71875 6.59375 -2.8125 C 6.59375 -1.863281 6.296875 -1.128906 5.703125 -0.609375 C 5.117188 -0.0859375 4.296875 0.171875 3.234375 0.171875 C 2.859375 0.171875 2.476562 0.140625 2.09375 0.078125 C 1.71875 0.015625 1.328125 -0.078125 0.921875 -0.203125 L 0.921875 -1.390625 C 1.273438 -1.203125 1.640625 -1.0625 2.015625 -0.96875 C 2.390625 -0.875 2.785156 -0.828125 3.203125 -0.828125 C 3.878906 -0.828125 4.414062 -1.003906 4.8125 -1.359375 C 5.207031 -1.710938 5.40625 -2.195312 5.40625 -2.8125 C 5.40625 -3.414062 5.207031 -3.894531 4.8125 -4.25 C 4.414062 -4.601562 3.878906 -4.78125 3.203125 -4.78125 C 2.890625 -4.78125 2.570312 -4.742188 2.25 -4.671875 C 1.9375 -4.609375 1.617188 -4.503906 1.296875 -4.359375 Z M 1.296875 -8.75 "/>
</symbol>
<symbol overflow="visible" id="MGcQ5DkM7-0">
<path style="stroke:none;" d="M 0.59375 2.125 L 0.59375 -8.46875 L 6.59375 -8.46875 L 6.59375 2.125 Z M 1.265625 1.453125 L 5.9375 1.453125 L 5.9375 -7.78125 L 1.265625 -7.78125 Z M 1.265625 1.453125 "/>
</symbol>
<symbol overflow="visible" id="MGcQ5DkM7-1">
<path style="stroke:none;" d="M 3.8125 -7.96875 C 3.207031 -7.96875 2.75 -7.664062 2.4375 -7.0625 C 2.132812 -6.46875 1.984375 -5.566406 1.984375 -4.359375 C 1.984375 -3.160156 2.132812 -2.257812 2.4375 -1.65625 C 2.75 -1.0625 3.207031 -0.765625 3.8125 -0.765625 C 4.425781 -0.765625 4.882812 -1.0625 5.1875 -1.65625 C 5.5 -2.257812 5.65625 -3.160156 5.65625 -4.359375 C 5.65625 -5.566406 5.5 -6.46875 5.1875 -7.0625 C 4.882812 -7.664062 4.425781 -7.96875 3.8125 -7.96875 Z M 3.8125 -8.90625 C 4.789062 -8.90625 5.539062 -8.515625 6.0625 -7.734375 C 6.582031 -6.960938 6.84375 -5.835938 6.84375 -4.359375 C 6.84375 -2.890625 6.582031 -1.765625 6.0625 -0.984375 C 5.539062 -0.210938 4.789062 0.171875 3.8125 0.171875 C 2.832031 0.171875 2.082031 -0.210938 1.5625 -0.984375 C 1.050781 -1.765625 0.796875 -2.890625 0.796875 -4.359375 C 0.796875 -5.835938 1.050781 -6.960938 1.5625 -7.734375 C 2.082031 -8.515625 2.832031 -8.90625 3.8125 -8.90625 Z M 3.8125 -8.90625 "/>
</symbol>
<symbol overflow="visible" id="MGcQ5DkM7-2">
<path style="stroke:none;" d="M 1.28125 -1.484375 L 2.515625 -1.484375 L 2.515625 0 L 1.28125 0 Z M 1.28125 -1.484375 "/>
</symbol>
<symbol overflow="visible" id="MGcQ5DkM8-0">
<path style="stroke:none;" d="M 0.59375 2.125 L 0.59375 -8.46875 L 6.59375 -8.46875 L 6.59375 2.125 Z M 1.265625 1.453125 L 5.9375 1.453125 L 5.9375 -7.78125 L 1.265625 -7.78125 Z M 1.265625 1.453125 "/>
</symbol>
<symbol overflow="visible" id="MGcQ5DkM8-1">
<path style="stroke:none;" d="M 1.296875 -8.75 L 5.9375 -8.75 L 5.9375 -7.75 L 2.375 -7.75 L 2.375 -5.609375 C 2.550781 -5.671875 2.722656 -5.710938 2.890625 -5.734375 C 3.066406 -5.765625 3.238281 -5.78125 3.40625 -5.78125 C 4.382812 -5.78125 5.160156 -5.507812 5.734375 -4.96875 C 6.304688 -4.4375 6.59375 -3.71875 6.59375 -2.8125 C 6.59375 -1.863281 6.296875 -1.128906 5.703125 -0.609375 C 5.117188 -0.0859375 4.296875 0.171875 3.234375 0.171875 C 2.859375 0.171875 2.476562 0.140625 2.09375 0.078125 C 1.71875 0.015625 1.328125 -0.078125 0.921875 -0.203125 L 0.921875 -1.390625 C 1.273438 -1.203125 1.640625 -1.0625 2.015625 -0.96875 C 2.390625 -0.875 2.785156 -0.828125 3.203125 -0.828125 C 3.878906 -0.828125 4.414062 -1.003906 4.8125 -1.359375 C 5.207031 -1.710938 5.40625 -2.195312 5.40625 -2.8125 C 5.40625 -3.414062 5.207031 -3.894531 4.8125 -4.25 C 4.414062 -4.601562 3.878906 -4.78125 3.203125 -4.78125 C 2.890625 -4.78125 2.570312 -4.742188 2.25 -4.671875 C 1.9375 -4.609375 1.617188 -4.503906 1.296875 -4.359375 Z M 1.296875 -8.75 "/>
</symbol>
<symbol overflow="visible" id="MGcQ5DkM9-0">
<path style="stroke:none;" d="M 0.59375 2.125 L 0.59375 -8.46875 L 6.59375 -8.46875 L 6.59375 2.125 Z M 1.265625 1.453125 L 5.9375 1.453125 L 5.9375 -7.78125 L 1.265625 -7.78125 Z M 1.265625 1.453125 "/>
</symbol>
<symbol overflow="visible" id="MGcQ5DkM9-1">
<path style="stroke:none;" d="M 1.484375 -1 L 3.421875 -1 L 3.421875 -7.671875 L 1.3125 -7.25 L 1.3125 -8.328125 L 3.40625 -8.75 L 4.59375 -8.75 L 4.59375 -1 L 6.53125 -1 L 6.53125 0 L 1.484375 0 Z M 1.484375 -1 "/>
</symbol>
<symbol overflow="visible" id="MGcQ5DkM10-0">
<path style="stroke:none;" d="M 0.59375 2.125 L 0.59375 -8.46875 L 6.59375 -8.46875 L 6.59375 2.125 Z M 1.265625 1.453125 L 5.9375 1.453125 L 5.9375 -7.78125 L 1.265625 -7.78125 Z M 1.265625 1.453125 "/>
</symbol>
<symbol overflow="visible" id="MGcQ5DkM10-1">
<path style="stroke:none;" d="M 1.28125 -1.484375 L 2.515625 -1.484375 L 2.515625 0 L 1.28125 0 Z M 1.28125 -1.484375 "/>
</symbol>
<symbol overflow="visible" id="MGcQ5DkM10-2">
<path style="stroke:none;" d="M 3.8125 -7.96875 C 3.207031 -7.96875 2.75 -7.664062 2.4375 -7.0625 C 2.132812 -6.46875 1.984375 -5.566406 1.984375 -4.359375 C 1.984375 -3.160156 2.132812 -2.257812 2.4375 -1.65625 C 2.75 -1.0625 3.207031 -0.765625 3.8125 -0.765625 C 4.425781 -0.765625 4.882812 -1.0625 5.1875 -1.65625 C 5.5 -2.257812 5.65625 -3.160156 5.65625 -4.359375 C 5.65625 -5.566406 5.5 -6.46875 5.1875 -7.0625 C 4.882812 -7.664062 4.425781 -7.96875 3.8125 -7.96875 Z M 3.8125 -8.90625 C 4.789062 -8.90625 5.539062 -8.515625 6.0625 -7.734375 C 6.582031 -6.960938 6.84375 -5.835938 6.84375 -4.359375 C 6.84375 -2.890625 6.582031 -1.765625 6.0625 -0.984375 C 5.539062 -0.210938 4.789062 0.171875 3.8125 0.171875 C 2.832031 0.171875 2.082031 -0.210938 1.5625 -0.984375 C 1.050781 -1.765625 0.796875 -2.890625 0.796875 -4.359375 C 0.796875 -5.835938 1.050781 -6.960938 1.5625 -7.734375 C 2.082031 -8.515625 2.832031 -8.90625 3.8125 -8.90625 Z M 3.8125 -8.90625 "/>
</symbol>
<symbol overflow="visible" id="MGcQ5DkM11-0">
<path style="stroke:none;" d="M 2.125 -0.59375 L -8.46875 -0.59375 L -8.46875 -6.59375 L 2.125 -6.59375 Z M 1.453125 -1.265625 L 1.453125 -5.9375 L -7.78125 -5.9375 L -7.78125 -1.265625 Z M 1.453125 -1.265625 "/>
</symbol>
<symbol overflow="visible" id="MGcQ5DkM11-1">
<path style="stroke:none;" d="M 0.609375 -3.859375 C 1.390625 -3.554688 1.898438 -3.257812 2.140625 -2.96875 C 2.378906 -2.675781 2.5 -2.289062 2.5 -1.8125 L 2.5 -0.953125 L 1.59375 -0.953125 L 1.59375 -1.578125 C 1.59375 -1.878906 1.519531 -2.109375 1.375 -2.265625 C 1.238281 -2.429688 0.910156 -2.613281 0.390625 -2.8125 L -0.109375 -3.015625 L -6.5625 -0.359375 L -6.5625 -1.5 L -1.4375 -3.546875 L -6.5625 -5.609375 L -6.5625 -6.75 Z M 0.609375 -3.859375 "/>
</symbol>
</g>
<clipPath id="clip1">
  <path d="M 64 12 L 506 12 L 506 117 L 64 117 Z M 64 12 "/>
</clipPath>
</defs>
<g id="surface1">
<path style=" stroke:none;fill-rule:nonzero;fill:rgb(100%,100%,100%);fill-opacity:1;" d="M 0 0 L 522 0 L 522 165.75 L 0 165.75 Z M 0 0 "/>
<path style=" stroke:none;fill-rule:nonzero;fill:rgb(100%,100%,100%);fill-opacity:1;" d="M 60 117 L 510 117 L 510 12 L 60 12 Z M 60 117 "/>
<path style="fill:none;stroke-width:1;stroke-linecap:butt;stroke-linejoin:miter;stroke:rgb(0%,0%,0%);stroke-opacity:0.12;stroke-miterlimit:10;" d="M 88.463542 156 L 88.463542 16 " transform="matrix(0.75,0,0,0.75,0,0)"/>
<path style="fill:none;stroke-width:1;stroke-linecap:butt;stroke-linejoin:miter;stroke:rgb(0%,0%,0%);stroke-opacity:0.12;stroke-miterlimit:10;" d="M 276.552083 156 L 276.552083 16 " transform="matrix(0.75,0,0,0.75,0,0)"/>
<path style="fill:none;stroke-width:1;stroke-linecap:butt;stroke-linejoin:miter;stroke:rgb(0%,0%,0%);stroke-opacity:0.12;stroke-miterlimit:10;" d="M 464.640625 156 L 464.640625 16 " transform="matrix(0.75,0,0,0.75,0,0)"/>
<path style="fill:none;stroke-width:1;stroke-linecap:butt;stroke-linejoin:miter;stroke:rgb(0%,0%,0%);stroke-opacity:0.12;stroke-miterlimit:10;" d="M 652.729167 156 L 652.729167 16 " transform="matrix(0.75,0,0,0.75,0,0)"/>
<path style="fill:none;stroke-width:1;stroke-linecap:butt;stroke-linejoin:miter;stroke:rgb(0%,0%,0%);stroke-opacity:0.12;stroke-miterlimit:10;" d="M 80 149.635417 L 680 149.635417 " transform="matrix(0.75,0,0,0.75,0,0)"/>
<path style="fill:none;stroke-width:1;stroke-linecap:butt;stroke-linejoin:miter;stroke:rgb(0%,0%,0%);stroke-opacity:0.12;stroke-miterlimit:10;" d="M 80 117.817708 L 680 117.817708 " transform="matrix(0.75,0,0,0.75,0,0)"/>
<path style="fill:none;stroke-width:1;stroke-linecap:butt;stroke-linejoin:miter;stroke:rgb(0%,0%,0%);stroke-opacity:0.12;stroke-miterlimit:10;" d="M 80 86 L 680 86 " transform="matrix(0.75,0,0,0.75,0,0)"/>
<path style="fill:none;stroke-width:1;stroke-linecap:butt;stroke-linejoin:miter;stroke:rgb(0%,0%,0%);stroke-opacity:0.12;stroke-miterlimit:10;" d="M 80 54.182292 L 680 54.182292 " transform="matrix(0.75,0,0,0.75,0,0)"/>
<path style="fill:none;stroke-width:1;stroke-linecap:butt;stroke-linejoin:miter;stroke:rgb(0%,0%,0%);stroke-opacity:0.12;stroke-miterlimit:10;" d="M 80 22.364583 L 680 22.364583 " transform="matrix(0.75,0,0,0.75,0,0)"/>
<g style="fill:rgb(0%,0%,0%);fill-opacity:1;">
  <use xlink:href="#MGcQ5DkM0-1" x="62.929688" y="134.890625"/>
</g>
<g style="fill:rgb(0%,0%,0%);fill-opacity:1;">
  <use xlink:href="#MGcQ5DkM1-1" x="199.914062" y="134.890625"/>
</g>
<g style="fill:rgb(0%,0%,0%);fill-opacity:1;">
  <use xlink:href="#MGcQ5DkM1-2" x="207.546875" y="134.890625"/>
</g>
<g style="fill:rgb(0%,0%,0%);fill-opacity:1;">
  <use xlink:href="#MGcQ5DkM1-3" x="341.199219" y="134.890625"/>
</g>
<g style="fill:rgb(0%,0%,0%);fill-opacity:1;">
  <use xlink:href="#MGcQ5DkM2-1" x="348.835938" y="134.890625"/>
</g>
<g style="fill:rgb(0%,0%,0%);fill-opacity:1;">
  <use xlink:href="#MGcQ5DkM1-4" x="482.246094" y="134.890625"/>
</g>
<g style="fill:rgb(0%,0%,0%);fill-opacity:1;">
  <use xlink:href="#MGcQ5DkM1-2" x="489.882812" y="134.890625"/>
</g>
<g style="fill:rgb(0%,0%,0%);fill-opacity:1;">
  <use xlink:href="#MGcQ5DkM1-5" x="281.644531" y="151.109375"/>
</g>
<g style="fill:rgb(0%,0%,0%);fill-opacity:1;">
  <use xlink:href="#MGcQ5DkM3-1" x="29.921875" y="116.382812"/>
</g>
<g style="fill:rgb(0%,0%,0%);fill-opacity:1;">
  <use xlink:href="#MGcQ5DkM4-1" x="34.253906" y="116.382812"/>
</g>
<g style="fill:rgb(0%,0%,0%);fill-opacity:1;">
  <use xlink:href="#MGcQ5DkM0-2" x="41.890625" y="116.382812"/>
</g>
<g style="fill:rgb(0%,0%,0%);fill-opacity:1;">
  <use xlink:href="#MGcQ5DkM0-1" x="45.703125" y="116.382812"/>
</g>
<g style="fill:rgb(0%,0%,0%);fill-opacity:1;">
  <use xlink:href="#MGcQ5DkM5-1" x="30.3125" y="92.519531"/>
</g>
<g style="fill:rgb(0%,0%,0%);fill-opacity:1;">
  <use xlink:href="#MGcQ5DkM5-2" x="34.640625" y="92.519531"/>
</g>
<g style="fill:rgb(0%,0%,0%);fill-opacity:1;">
  <use xlink:href="#MGcQ5DkM5-3" x="42.273438" y="92.519531"/>
</g>
<g style="fill:rgb(0%,0%,0%);fill-opacity:1;">
  <use xlink:href="#MGcQ5DkM6-1" x="46.089844" y="92.519531"/>
</g>
<g style="fill:rgb(0%,0%,0%);fill-opacity:1;">
  <use xlink:href="#MGcQ5DkM4-2" x="34.253906" y="68.65625"/>
</g>
<g style="fill:rgb(0%,0%,0%);fill-opacity:1;">
  <use xlink:href="#MGcQ5DkM0-2" x="41.890625" y="68.65625"/>
</g>
<g style="fill:rgb(0%,0%,0%);fill-opacity:1;">
  <use xlink:href="#MGcQ5DkM0-1" x="45.703125" y="68.65625"/>
</g>
<g style="fill:rgb(0%,0%,0%);fill-opacity:1;">
  <use xlink:href="#MGcQ5DkM7-1" x="34.640625" y="44.789062"/>
</g>
<g style="fill:rgb(0%,0%,0%);fill-opacity:1;">
  <use xlink:href="#MGcQ5DkM7-2" x="42.273438" y="44.789062"/>
</g>
<g style="fill:rgb(0%,0%,0%);fill-opacity:1;">
  <use xlink:href="#MGcQ5DkM8-1" x="46.089844" y="44.789062"/>
</g>
<g style="fill:rgb(0%,0%,0%);fill-opacity:1;">
  <use xlink:href="#MGcQ5DkM9-1" x="34.253906" y="20.925781"/>
</g>
<g style="fill:rgb(0%,0%,0%);fill-opacity:1;">
  <use xlink:href="#MGcQ5DkM10-1" x="41.890625" y="20.925781"/>
</g>
<g style="fill:rgb(0%,0%,0%);fill-opacity:1;">
  <use xlink:href="#MGcQ5DkM10-2" x="45.703125" y="20.925781"/>
</g>
<g style="fill:rgb(0%,0%,0%);fill-opacity:1;">
  <use xlink:href="#MGcQ5DkM11-1" x="23.003906" y="67.871094"/>
</g>
<g clip-path="url(#clip1)" clip-rule="nonzero">
<path style="fill:none;stroke-width:1.5;stroke-linecap:butt;stroke-linejoin:miter;stroke:rgb(0%,0%,0%);stroke-opacity:1;stroke-miterlimit:10;" d="M 107.270833 32.453125 L 109.151042 29.286458 L 111.036458 26.6875 L 112.916667 24.682292 L 114.796875 23.291667 L 116.677083 22.520833 L 118.557292 22.390625 L 120.4375 22.895833 L 122.317708 24.026042 L 124.203125 25.78125 L 126.083333 28.135417 L 127.963542 31.067708 L 129.84375 34.552083 L 131.723958 38.546875 L 133.604167 43.015625 L 135.484375 47.916667 L 137.364583 53.192708 L 139.25 58.802083 L 141.130208 64.682292 L 143.010417 70.776042 L 144.890625 77.020833 L 146.770833 83.354167 L 148.651042 89.713542 L 150.53125 96.036458 L 152.411458 102.260417 L 154.296875 108.322917 L 156.177083 114.161458 L 158.057292 119.71875 L 159.9375 124.9375 L 161.817708 129.765625 L 163.697917 134.161458 L 165.578125 138.072917 L 167.458333 141.463542 L 169.34375 144.302083 L 171.223958 146.557292 L 173.104167 148.208333 L 174.984375 149.234375 L 176.864583 149.630208 L 178.744792 149.390625 L 180.625 148.520833 L 182.510417 147.020833 L 184.390625 144.916667 L 186.270833 142.21875 L 188.151042 138.963542 L 190.03125 135.177083 L 191.911458 130.901042 L 193.791667 126.171875 L 195.671875 121.041667 L 197.557292 115.567708 L 199.4375 109.791667 L 201.317708 103.78125 L 203.197917 97.59375 L 205.078125 91.286458 L 206.958333 84.932292 L 208.838542 78.583333 L 210.71875 72.3125 L 212.604167 66.177083 L 214.484375 60.234375 L 216.364583 54.557292 L 218.244792 49.1875 L 220.125 44.192708 L 222.005208 39.609375 L 223.885417 35.494792 L 225.765625 31.880208 L 227.651042 28.807292 L 229.53125 26.307292 L 231.411458 24.40625 L 233.291667 23.114583 L 235.171875 22.458333 L 237.052083 22.432292 L 238.932292 23.041667 L 240.8125 24.28125 L 242.697917 26.135417 L 244.578125 28.588542 L 246.458333 31.614583 L 248.338542 35.1875 L 250.21875 39.265625 L 252.098958 43.8125 L 253.979167 48.776042 L 255.864583 54.114583 L 257.744792 59.776042 L 259.625 65.692708 L 261.505208 71.817708 L 263.385417 78.078125 L 265.265625 84.421875 L 267.145833 90.78125 L 269.026042 97.09375 L 270.911458 103.291667 L 272.791667 109.322917 L 274.671875 115.114583 L 276.552083 120.619792 L 278.432292 125.776042 L 280.3125 130.536458 L 282.192708 134.854167 L 284.072917 138.682292 L 285.958333 141.979167 L 287.838542 144.723958 L 289.71875 146.875 L 291.598958 148.421875 L 293.479167 149.348958 L 295.359375 149.635417 L 297.239583 149.291667 L 299.119792 148.3125 L 301.005208 146.708333 L 302.885417 144.505208 L 304.765625 141.713542 L 306.645833 138.364583 L 308.526042 134.489583 L 310.40625 130.135417 L 312.286458 125.338542 L 314.171875 120.145833 L 316.052083 114.614583 L 317.932292 108.796875 L 319.8125 102.75 L 321.692708 96.536458 L 323.572917 90.21875 L 325.453125 83.859375 L 327.333333 77.520833 L 329.21875 71.265625 L 331.098958 65.161458 L 332.979167 59.260417 L 334.859375 53.630208 L 336.739583 48.322917 L 338.619792 43.390625 L 340.5 38.885417 L 342.380208 34.848958 L 344.265625 31.328125 L 346.145833 28.348958 L 348.026042 25.947917 L 349.90625 24.145833 L 351.786458 22.963542 L 353.666667 22.40625 L 355.546875 22.489583 L 357.427083 23.203125 L 359.3125 24.546875 L 361.192708 26.505208 L 363.072917 29.057292 L 364.953125 32.177083 L 366.833333 35.838542 L 368.713542 40 L 370.59375 44.619792 L 372.473958 49.651042 L 374.359375 55.046875 L 376.239583 60.755208 L 378.119792 66.708333 L 380 72.859375 L 381.880208 79.140625 L 385.640625 91.848958 L 387.526042 98.145833 L 389.40625 104.322917 L 391.286458 110.3125 L 393.166667 116.0625 L 395.046875 121.510417 L 396.927083 126.609375 L 398.807292 131.296875 L 400.6875 135.53125 L 402.572917 139.270833 L 404.453125 142.484375 L 406.333333 145.125 L 408.213542 147.182292 L 410.09375 148.625 L 411.973958 149.4375 L 413.854167 149.625 L 415.734375 149.171875 L 417.619792 148.083333 L 419.5 146.380208 L 421.380208 144.072917 L 423.260417 141.1875 L 425.140625 137.744792 L 427.020833 133.791667 L 428.901042 129.359375 L 430.78125 124.489583 L 432.666667 119.239583 L 434.546875 113.65625 L 436.427083 107.796875 L 438.307292 101.71875 L 440.1875 95.484375 L 442.067708 89.151042 L 443.947917 82.791667 L 445.828125 76.463542 L 447.713542 70.229167 L 449.59375 64.151042 L 451.473958 58.296875 L 453.354167 52.713542 L 455.234375 47.463542 L 457.114583 42.604167 L 458.994792 38.171875 L 460.880208 34.21875 L 462.760417 30.786458 L 464.640625 27.901042 L 466.520833 25.598958 L 468.401042 23.901042 L 470.28125 22.822917 L 472.161458 22.375 L 474.041667 22.5625 L 475.927083 23.385417 L 477.807292 24.833333 L 479.6875 26.895833 L 481.567708 29.541667 L 483.447917 32.760417 L 485.328125 36.505208 L 487.208333 40.744792 L 489.088542 45.4375 L 490.973958 50.536458 L 492.854167 55.984375 L 494.734375 61.739583 L 496.614583 67.734375 L 498.494792 73.911458 L 500.375 80.208333 L 502.255208 86.5625 L 504.135417 92.911458 L 506.020833 99.192708 L 507.901042 105.34375 L 509.78125 111.296875 L 511.661458 117 L 513.541667 122.395833 L 515.421875 127.427083 L 517.302083 132.041667 L 519.1875 136.197917 L 521.067708 139.848958 L 522.947917 142.96875 L 524.828125 145.515625 L 526.708333 147.46875 L 528.588542 148.802083 L 530.46875 149.515625 L 532.348958 149.588542 L 534.234375 149.03125 L 536.114583 147.84375 L 537.994792 146.036458 L 539.875 143.630208 L 541.755208 140.645833 L 543.635417 137.114583 L 545.515625 133.078125 L 547.395833 128.567708 L 549.28125 123.630208 L 551.161458 118.322917 L 553.041667 112.6875 L 554.921875 106.786458 L 556.802083 100.677083 L 558.682292 94.421875 L 560.5625 88.083333 L 562.442708 81.723958 L 564.328125 75.40625 L 566.208333 69.192708 L 568.088542 63.151042 L 569.96875 57.333333 L 571.848958 51.807292 L 573.729167 46.619792 L 575.609375 41.828125 L 577.489583 37.473958 L 579.375 33.604167 L 581.255208 30.260417 L 583.135417 27.473958 L 585.015625 25.270833 L 586.895833 23.677083 L 588.776042 22.703125 L 590.65625 22.364583 L 592.541667 22.661458 L 594.421875 23.588542 L 596.302083 25.140625 L 598.182292 27.296875 L 600.0625 30.046875 L 601.942708 33.348958 L 603.822917 37.182292 L 605.703125 41.505208 L 607.588542 46.265625 L 609.46875 51.427083 L 611.348958 56.932292 L 613.229167 62.729167 L 615.109375 68.760417 L 616.989583 74.963542 L 618.869792 81.276042 L 620.75 87.635417 L 622.635417 93.973958 L 624.515625 100.239583 L 626.395833 106.359375 L 628.276042 112.276042 L 630.15625 117.932292 L 632.036458 123.270833 L 633.916667 128.229167 L 635.796875 132.770833 L 637.682292 136.848958 L 639.5625 140.411458 L 641.442708 143.4375 L 643.322917 145.885417 L 645.203125 147.734375 L 647.083333 148.96875 L 648.963542 149.572917 L 650.848958 149.541667 L 652.729167 148.875 " transform="matrix(0.75,0,0,0.75,0,0)"/>
</g>
<path style="fill:none;stroke-width:1;stroke-linecap:butt;stroke-linejoin:miter;stroke:rgb(0%,0%,0%);stroke-opacity:1;stroke-miterlimit:10;" d="M 88.463542 156.5 L 88.463542 162.5 " transform="matrix(0.75,0,0,0.75,0,0)"/>
<path style="fill:none;stroke-width:1;stroke-linecap:butt;stroke-linejoin:miter;stroke:rgb(0%,0%,0%);stroke-opacity:1;stroke-miterlimit:10;" d="M 276.552083 156.5 L 276.552083 162.5 " transform="matrix(0.75,0,0,0.75,0,0)"/>
<path style="fill:none;stroke-width:1;stroke-linecap:butt;stroke-linejoin:miter;stroke:rgb(0%,0%,0%);stroke-opacity:1;stroke-miterlimit:10;" d="M 464.640625 156.5 L 464.640625 162.5 " transform="matrix(0.75,0,0,0.75,0,0)"/>
<path style="fill:none;stroke-width:1;stroke-linecap:butt;stroke-linejoin:miter;stroke:rgb(0%,0%,0%);stroke-opacity:1;stroke-miterlimit:10;" d="M 652.729167 156.5 L 652.729167 162.5 " transform="matrix(0.75,0,0,0.75,0,0)"/>
<path style="fill:none;stroke-width:1;stroke-linecap:butt;stroke-linejoin:miter;stroke:rgb(0%,0%,0%);stroke-opacity:1;stroke-miterlimit:10;" d="M 79.5 149.635417 L 73.5 149.635417 " transform="matrix(0.75,0,0,0.75,0,0)"/>
<path style="fill:none;stroke-width:1;stroke-linecap:butt;stroke-linejoin:miter;stroke:rgb(0%,0%,0%);stroke-opacity:1;stroke-miterlimit:10;" d="M 79.5 117.817708 L 73.5 117.817708 " transform="matrix(0.75,0,0,0.75,0,0)"/>
<path style="fill:none;stroke-width:1;stroke-linecap:butt;stroke-linejoin:miter;stroke:rgb(0%,0%,0%);stroke-opacity:1;stroke-miterlimit:10;" d="M 79.5 86 L 73.5 86 " transform="matrix(0.75,0,0,0.75,0,0)"/>
<path style="fill:none;stroke-width:1;stroke-linecap:butt;stroke-linejoin:miter;stroke:rgb(0%,0%,0%);stroke-opacity:1;stroke-miterlimit:10;" d="M 79.5 54.182292 L 73.5 54.182292 " transform="matrix(0.75,0,0,0.75,0,0)"/>
<path style="fill:none;stroke-width:1;stroke-linecap:butt;stroke-linejoin:miter;stroke:rgb(0%,0%,0%);stroke-opacity:1;stroke-miterlimit:10;" d="M 79.5 22.364583 L 73.5 22.364583 " transform="matrix(0.75,0,0,0.75,0,0)"/>
<path style="fill:none;stroke-width:1;stroke-linecap:butt;stroke-linejoin:miter;stroke:rgb(0%,0%,0%);stroke-opacity:1;stroke-miterlimit:10;" d="M 79.5 156 L 680.5 156 " transform="matrix(0.75,0,0,0.75,0,0)"/>
<path style="fill:none;stroke-width:1;stroke-linecap:butt;stroke-linejoin:miter;stroke:rgb(0%,0%,0%);stroke-opacity:1;stroke-miterlimit:10;" d="M 80 156.5 L 80 15.5 " transform="matrix(0.75,0,0,0.75,0,0)"/>
<path style="fill:none;stroke-width:1;stroke-linecap:butt;stroke-linejoin:miter;stroke:rgb(0%,0%,0%);stroke-opacity:1;stroke-miterlimit:10;" d="M 79.5 16 L 680.5 16 " transform="matrix(0.75,0,0,0.75,0,0)"/>
<path style="fill:none;stroke-width:1;stroke-linecap:butt;stroke-linejoin:miter;stroke:rgb(0%,0%,0%);stroke-opacity:1;stroke-miterlimit:10;" d="M 680 156.5 L 680 15.5 " transform="matrix(0.75,0,0,0.75,0,0)"/>
</g>
</svg>
